
<svg xmlns="http://www.w3.org/2000/svg" version="1.1" xmlns:xlink="http://www.w3.org/1999/xlink" preserveAspectRatio="none" x="0px" y="0px" width="136px" height="136px" viewBox="0 0 136 136">
<defs>
<linearGradient id="Gradient_1" gradientUnits="userSpaceOnUse" x1="-18.974999999999998" y1="-160.37500000000003" x2="-18.825" y2="156.57500000000002" spreadMethod="pad">
<stop  offset="0%" stop-color="#2CA6FF"/>

<stop  offset="100%" stop-color="#3232A2"/>
</linearGradient>

<linearGradient id="Gradient_2" gradientUnits="userSpaceOnUse" x1="-21.5625" y1="-89.80000000000001" x2="-21.5375" y2="79.5" spreadMethod="pad">
<stop  offset="0%" stop-color="#2CA6FF"/>

<stop  offset="100%" stop-color="#3232A2"/>
</linearGradient>

<filter id="Filter_1" x="-27.230823786917146%" y="-24.335313893478826%" width="154.46164757383428%" height="148.67062778695765%" color-interpolation-filters="sRGB">
<feGaussianBlur in="SourceGraphic" stdDeviation="6,6" result="result1"/>

<feColorMatrix in="result1" type="matrix" values="0.9 0 0 0 0.10196078431372549 0 0.9 0 0 0.10196078431372549 0 0 0.9 0 0 0 0 0 1 0" result="result2"/>
</filter>

<filter id="Filter_2" x="-41.591078080100885%" y="-41.58298817534285%" width="183.18215616020177%" height="183.1659763506857%" color-interpolation-filters="sRGB">
<feGaussianBlur in="SourceGraphic" stdDeviation="16.666666666666668,16.666666666666668" result="result1"/>

<feColorMatrix in="result1" type="matrix" values="0.9 0 0 0 0.10196078431372549 0 0.9 0 0 0.10196078431372549 0 0 0.9 0 0 0 0 0 1 0" result="result2"/>
</filter>

<g id="Assets_Props_II2_Logo_0_Layer11_0_FILL">
<path fill="url(#Gradient_1)" stroke="none" d="
M 112.15 -113.4
Q 107.6 -117.95 102.9 -122.05 76.8 -144.65 45.1 -153.75 23.8 -159.85 0 -159.85 -65.6 -159.85 -112 -113.4 -158.45 -67 -158.45 -1.4 -158.45 64.3 -112 110.7 -65.6 157.1 0 157.1 65.7 157.1 112.15 110.7 158.45 64.3 158.45 -1.4 158.45 -67 112.15 -113.4 Z"/>
</g>

<g id="Assets_Props_II2_Logo_0_Layer10_0_FILL">
<path fill="#EFD9EE" stroke="none" d="
M 135.3 -3.6
Q 135.3 -59.8 95.65 -99.55 55.9 -139.3 -0.4 -139.3 -56.55 -139.3 -96.3 -99.55 -136.05 -59.8 -136.05 -3.6 -136.05 52.65 -96.3 92.35 -56.55 132.1 -0.4 132.1 55.9 132.1 95.65 92.35 135.3 52.65 135.3 -3.6 Z"/>
</g>

<g id="Mask_Assets_Props_II2_Logo_0_9_MASK_0_FILL">
<path fill="#FFFFFF" stroke="none" d="
M 135.3 -3.6
Q 135.3 -59.8 95.65 -99.55 55.9 -139.3 -0.4 -139.3 -56.55 -139.3 -96.3 -99.55 -136.05 -59.8 -136.05 -3.6 -136.05 52.65 -96.3 92.35 -56.55 132.1 -0.4 132.1 55.9 132.1 95.65 92.35 135.3 52.65 135.3 -3.6 Z"/>
</g>

<g id="Assets_Props_parts_insanitylogo_Another_thing_0_Layer0_0_FILL">
<path fill="#FFFFFF" stroke="none" d="
M 104.9 -104.65
Q 104.875 -104.675 104.8 -104.75 61.43359375 -148.105859375 0 -148.1 -61.2677734375 -148.0931640625 -104.7 -104.75
L -104.75 -104.7
Q -148.0439453125 -61.316796875 -148.05 0 -148.0447265625 61.366015625 -104.75 104.75
L -104.7 104.75
Q -61.26875 148.09375 0 148.1 61.433203125 148.1080078125 104.8 104.75 104.97734375 104.6232421875 105.1 104.45 148.0966796875 61.1818359375 148.1 0 148.1052734375 -60.8896484375 105.4 -104.15
L 105.4 -104.15
Q 105.375 -104.175 105.3 -104.25 105.238671875 -104.3125 105.15 -104.4 105.0638671875 -104.48671875 104.95 -104.6
L 104.9 -104.65
M 0 -106.5
Q 44.217578125 -106.49296875 75.4 -75.3 106.5927734375 -44.1177734375 106.6 0.05 106.59296875 44.26484375 75.45 75.35
L 75.4 75.4
Q 44.2125 106.6451171875 0 106.65 -43.86171875 106.6513671875 -75 75.75
L -75 75.7
Q -75.1974609375 75.5119140625 -75.45 75.25 -106.5474609375 44.1287109375 -106.55 0.05 -106.5482421875 -44.0796875 -75.3 -75.25
L -75.3 -75.25 -75.25 -75.3 -75.25 -75.3
Q -44.0787109375 -106.4970703125 0 -106.5 Z"/>
</g>

<g id="Assets_Props_II2_Logo_0_Layer6_0_FILL">
<path fill="#FFFFFF" stroke="none" d="
M -47.2 -60.2
L -50.8 -60.2 -52.45 46.4 -48.9 46.4 -47.2 -60.2
M 96.2 50.5
L 89.35 50.5 90.5 80.35 -89.65 80.35 -88.35 50.5 -94.85 50.5 -96.45 87.05 97.55 87.05 96.2 50.5
M 91.55 -64.65
L 90.1 -97.25 -88.65 -96.2 -90.3 -64.2 -83.7 -64.2 -82.4 -89.8 83.55 -90.8 84.75 -64.6 91.55 -64.65
M 51.9 -60.4
L 47.95 -60.4 51.05 46.4 55 46.4 51.9 -60.4 Z"/>

<path fill="url(#Gradient_2)" stroke="none" d="
M 47.95 -60.4
L 51.9 -60.4 84.9 -60.5 84.75 -64.6 83.55 -90.8 -82.4 -89.8 -83.7 -64.2 -83.9 -60.15 -50.8 -60.2 -47.2 -60.2 -48.9 46.4 -52.45 46.4 -88.15 46.4 -88.35 50.5 -89.65 80.35 90.5 80.35 89.35 50.5 89.2 46.4 55 46.4 51.05 46.4 47.95 -60.4
M 18.5 -60.35
L 19.85 46.4 -18.05 46.4 -17.1 -60.25 18.5 -60.35 Z"/>
</g>

<g id="Assets_Props_II2_Logo_0_Layer5_0_FILL">
<path fill="#FFFFFF" stroke="none" d="
M -86.9 -111.1
L -96.95 -122.85 -99.7 -121.7 -90.95 -109.1 -86.9 -111.1
M -79.1 -118.25
L -76.1 -119.85 -85.05 -133.15 -87.6 -131.35 -80.8 -122 -92.15 -127.95 -94.65 -126.4 -85.5 -113.6 -82.7 -115.65 -88.8 -123.3 -79.1 -118.25
M -75.3 -138.45
L -78.3 -136.5 -74.8 -121.7 -71.45 -123 -73.2 -129.35 -71.2 -130.5 -65.85 -125.95 -64.35 -128.2 -75.3 -138.45
M -75.95 -135.45
L -75.85 -135.5 -75.8 -135.3 -72.25 -132.2 -74.4 -130.9 -75.8 -135.3 -75.95 -135.45
M -46.3 -134
L -52.8 -148 -55.75 -147.65 -50.7 -133.15 -46.3 -134
M -55.05 -131.35
L -51.95 -132.6 -59.15 -146.85 -61.85 -145.45 -56.35 -135.35 -66.8 -142.6 -69.5 -141.35 -62 -127.55 -59 -129.15 -64.05 -137.6 -55.05 -131.35
M -44 -151.15
L -46.5 -150.8 -46.1 -135.75 -41.95 -136.45 -42.5 -145 -39.65 -143.65 -39.05 -146.2 -35.75 -142.55 -35.45 -138.6 -31.8 -139.6 -37.95 -153.05 -41.25 -152.05 -41 -147.8 -44 -151.15
M -24.65 -156.05
L -28.2 -155.55 -31 -140.6 -27.45 -140.4 -26.4 -146.95 -24.1 -147.15 -21.1 -140.85 -18.8 -142.3 -24.65 -156.05
M -26.45 -153.6
L -26.3 -153.65 -26.3 -153.35 -24.4 -149.15 -26.9 -148.85 -26.3 -153.35 -26.45 -153.6
M -20.75 -156.85
L -20.65 -153.6 -17.05 -153.8 -17.1 -142 -13.8 -141.9 -14.6 -153.85 -11.35 -153.85 -11.45 -156.9 -20.75 -156.85
M 0 -141.75
L 0.1 -145.45 -7.4 -144.85 -7.5 -147.75 -2.5 -147.95 -2.75 -151.35 -7.75 -151.05 -7.75 -154.45 -0.55 -154.85 -0.85 -157.5 -10.1 -157.1 -10.15 -142.1 0 -141.75 Z"/>
</g>

<g id="Assets_Props_II2_Logo_0_Layer4_0_FILL">
<path fill="#FFFFFF" stroke="none" d="
M 5.15 -150.65
Q 4.55 -150 4.55 -149.1 4.55 -148.2 5.15 -147.6 5.8 -146.95 6.7 -146.95 7.6 -146.95 8.2 -147.6 8.85 -148.2 8.85 -149.1 8.85 -150 8.2 -150.65 7.6 -151.25 6.7 -151.25 5.8 -151.25 5.15 -150.65 Z"/>
</g>

<g id="Assets_Props_II2_Logo_0_Layer3_0_FILL">
<path fill="#FFFFFF" stroke="none" d="
M 56.1 -146.95
L 52.85 -148.05 43.75 -136.7 46.65 -134.95 50.5 -140.05 52.55 -139.2 52.25 -132.45 54.8 -132.75 56.1 -146.95
M 53.55 -145.65
L 53.45 -145.5 53.15 -141 50.9 -141.85 53.45 -145.5 53.45 -145.65 53.55 -145.65
M 78 -136
L 76.05 -138 68.05 -125.75 71.25 -122.9 78 -136
M 65.7 -142.6
L 63.2 -143.95 56 -130.75 59 -129.35 63.1 -137.75 62.9 -127.55 65.65 -125.85 73.3 -139.05 70.65 -140.35 65.45 -130.65 65.7 -142.6
M 18.25 -155.85
L 15.6 -156.8 13.85 -142.25 18.05 -141.15 18.25 -155.85
M 25.15 -155.15
L 22.4 -155.7 20.25 -140.8 23.45 -140.4 24.35 -149.7 27.7 -139.8 30.8 -139 33.5 -154 30.55 -154.45 29 -143.55 25.15 -155.15
M 47.15 -148.95
L 42.05 -151.45 37.7 -151.65 35.7 -147.3 41.25 -141.2 33.5 -142.6 33 -139.1 42.95 -138.65 43.75 -141.8 39.4 -147.5 40.55 -149 45.4 -146.45 47.15 -148.95
M 91.3 -127.2
L 88.15 -127 89.1 -121.4 83.1 -115 86.5 -112.4 91.25 -119.95 97.3 -122 95.8 -124.4 91.05 -121.85 91.3 -127.2
M 83.75 -129.5
L 86.35 -127.7 88 -130.2 80.3 -135.4 78.65 -132.75 81.7 -130.8 74.95 -121.2 77.6 -119.35 83.75 -129.5 Z"/>
</g>

<g id="Assets_Props_II2_Logo_0_Layer2_0_FILL">
<path fill="#FFFFFF" stroke="none" d="
M -43.25 131.8
L -42.55 129 -52.3 125.95 -57.85 141.55 -47.45 145.65 -45.95 141.8 -54.05 139.65 -53.05 136.6 -47.75 138.25 -46.8 134.7 -52.05 133.1 -50.85 129.55 -43.25 131.8
M -62.65 127.65
L -61.3 126.15 -56.2 129.7 -54.25 127.1 -59.55 123.55 -64.15 122.75 -66.65 127.4 -61.05 135.15 -69.25 132.35 -70.05 136.25 -59.4 138.25 -58.25 134.75 -62.65 127.65
M -14.55 137.65
L -17.55 142.75 -16.5 149.5 -11.55 152.3 -5.6 150.4 -3.9 143.25 -6.3 137.9 -10.05 136.4 -14.55 137.65
M -12.65 146.9
L -12.3 141.4 -9.25 141.2 -9.05 147.25 -12.65 146.9
M -33.3 132.4
L -37 131.6 -45.35 145.4 -41.85 146.9 -38.45 140.75 -36.05 141.4 -35.4 148.8 -32.6 148.2 -33.3 132.4
M -35.9 134.2
L -36 134.35 -35.6 139.35 -38.2 138.7 -36 134.35 -36 134.15 -35.9 134.2
M -23.3 135.25
L -28 135.45 -29.5 140.35 -22.5 146.5 -31.15 145.6 -31.15 149.45 -20.25 149.1 -19.85 145.55 -25.55 139.8 -24.5 138.05 -18.8 140.35 -17.35 137.5 -23.3 135.25
M 10.2 137.55
L 7.05 137.2 5.8 149 1.2 136.7 -1.8 136.15 -3.55 152.35 0 152.7 0.55 142.55 4.6 153.15 8 153.9 10.2 137.55 Z"/>
</g>

<g id="Assets_Props_II2_Logo_0_Layer1_0_FILL">
<path fill="#FFFFFF" stroke="none" d="
M 15.8 145.65
Q 15.2 146.3 15.2 147.2 15.2 148.1 15.8 148.7 16.45 149.35 17.35 149.35 18.25 149.35 18.85 148.7 19.5 148.1 19.5 147.2 19.5 146.3 18.85 145.65 18.25 145.05 17.35 145.05 16.45 145.05 15.8 145.65 Z"/>
</g>

<g id="Assets_Props_II2_Logo_0_Layer0_0_FILL">
<path fill="#FFFFFF" stroke="none" d="
M 28.35 137.55
L 31.7 136.35 30.5 133.2 20.7 136.7 22 139.95 25.7 138.45 30 151 33.45 149.8 28.35 137.55
M 49.05 128.05
L 45.9 128.95 48.3 139.9 44.4 136.2 42.05 137.1 41.9 142.45 35.9 132.8 33.05 134.4 41.2 147 43.95 146.85 44.85 139.85 49.05 145.15 52 143.2 49.05 128.05
M 59.35 124.3
L 55.45 127 54.25 132.9 57.55 139 63.25 140 68.3 136.25 67.55 128.8 63.4 124.5 59.35 124.3
M 60.35 135.2
L 58.85 129.8 61.7 128.6 63.95 134.35 60.35 135.2 Z"/>
</g>

<path id="Assets_Props_parts_insanitylogo_Shine_0_Layer0_0_1_STROKES" stroke="#FFFFFF" stroke-width="26" stroke-linejoin="round" stroke-linecap="round" fill="none" d="
M 4.7 -169.6
L -141.1 113.5"/>

<path id="Assets_Props_parts_insanitylogo_Shine_0_Layer0_0_2_STROKES" stroke="#FFFFFF" stroke-width="32" stroke-linejoin="round" stroke-linecap="round" fill="none" d="
M 141.1 -106.1
L 13 169.6"/>

<path id="Assets_Props_parts_insanitylogo_Shine_0_Layer0_0_3_STROKES" stroke="#FFFFFF" stroke-width="23" stroke-linejoin="round" stroke-linecap="round" fill="none" d="
M 79.65 -148.75
L -68 131.6"/>
</defs>

<g transform="matrix( 1, 0, 0, 1, 0,0) ">
<g transform="matrix( 0.4283447265625, 0, 0, 0.4283447265625, 67.85,68.45) ">
<g transform="matrix( 1, 0, 0, 1, 0,0) ">
<use xlink:href="#Assets_Props_II2_Logo_0_Layer11_0_FILL"/>
</g>

<g transform="matrix( 1, 0, 0, 1, 0,0) ">
<use xlink:href="#Assets_Props_II2_Logo_0_Layer10_0_FILL"/>
</g>

<mask id="Mask_Mask_1">
<g transform="matrix( 1, 0, 0, 1, 0,0) ">
<use xlink:href="#Mask_Assets_Props_II2_Logo_0_9_MASK_0_FILL"/>
</g>
</mask>

<g mask="url(#Mask_Mask_1)">
<g filter="url(#Filter_1)" transform="matrix( 2.334564208984375, 0, 0, 2.334564208984375, -158.4,-159.8) ">
<g transform="matrix( 0.4283447265625, 0, 0, 0.4283447265625, 61.2,71.25) ">
<g transform="matrix( 1, 0, 0, 1, 0,0) ">
<use xlink:href="#Assets_Props_parts_insanitylogo_Shine_0_Layer0_0_1_STROKES"/>

<use xlink:href="#Assets_Props_parts_insanitylogo_Shine_0_Layer0_0_2_STROKES"/>

<use xlink:href="#Assets_Props_parts_insanitylogo_Shine_0_Layer0_0_3_STROKES"/>
</g>
</g>
</g>
</g>

<g mask="url(#Mask_Mask_1)">
<g filter="url(#Filter_2)" transform="matrix( 2.334564208984375, 0, 0, 2.334564208984375, -158.4,-159.8) ">
<g transform="matrix( 0.5646514892578125, 0, 0, 0.5646514892578125, 66.35,68.95) ">
<g transform="matrix( 1, 0, 0, 1, 0,0) ">
<use xlink:href="#Assets_Props_parts_insanitylogo_Another_thing_0_Layer0_0_FILL"/>
</g>
</g>
</g>
</g>

<g transform="matrix( 1, 0, 0, 1, 0,0) ">
<use xlink:href="#Assets_Props_II2_Logo_0_Layer6_0_FILL"/>
</g>

<g transform="matrix( 1, 0, 0, 1, 0,0) ">
<use xlink:href="#Assets_Props_II2_Logo_0_Layer5_0_FILL"/>
</g>

<g transform="matrix( 1, 0, 0, 1, 0,0) ">
<use xlink:href="#Assets_Props_II2_Logo_0_Layer4_0_FILL"/>
</g>

<g transform="matrix( 1, 0, 0, 1, 0,0) ">
<use xlink:href="#Assets_Props_II2_Logo_0_Layer3_0_FILL"/>
</g>

<g transform="matrix( 1, 0, 0, 1, 0,0) ">
<use xlink:href="#Assets_Props_II2_Logo_0_Layer2_0_FILL"/>
</g>

<g transform="matrix( 1, 0, 0, 1, 0,0) ">
<use xlink:href="#Assets_Props_II2_Logo_0_Layer1_0_FILL"/>
</g>

<g transform="matrix( 1, 0, 0, 1, 0,0) ">
<use xlink:href="#Assets_Props_II2_Logo_0_Layer0_0_FILL"/>
</g>
</g>
</g>
</svg>
